<svg id="visual" viewBox="0 0 900 600" width="900" height="600" xmlns="http://www.w3.org/2000/svg" xmlns:xlink="http://www.w3.org/1999/xlink" version="1.1"><rect x="0" y="0" width="900" height="600" fill="#fff"></rect><defs><linearGradient id="grad1_0" x1="33.3%" y1="0%" x2="100%" y2="100%"><stop offset="20%" stop-color="#ffe3ba" stop-opacity="1"></stop><stop offset="80%" stop-color="#ffe3ba" stop-opacity="1"></stop></linearGradient></defs><defs><linearGradient id="grad1_1" x1="33.3%" y1="0%" x2="100%" y2="100%"><stop offset="20%" stop-color="#ffe3ba" stop-opacity="1"></stop><stop offset="80%" stop-color="#ffecd1" stop-opacity="1"></stop></linearGradient></defs><defs><linearGradient id="grad1_2" x1="33.3%" y1="0%" x2="100%" y2="100%"><stop offset="20%" stop-color="#fff6e8" stop-opacity="1"></stop><stop offset="80%" stop-color="#ffecd1" stop-opacity="1"></stop></linearGradient></defs><defs><linearGradient id="grad1_3" x1="33.3%" y1="0%" x2="100%" y2="100%"><stop offset="20%" stop-color="#fff6e8" stop-opacity="1"></stop><stop offset="80%" stop-color="#ffffff" stop-opacity="1"></stop></linearGradient></defs><defs><linearGradient id="grad2_0" x1="0%" y1="0%" x2="66.7%" y2="100%"><stop offset="20%" stop-color="#ffe3ba" stop-opacity="1"></stop><stop offset="80%" stop-color="#ffe3ba" stop-opacity="1"></stop></linearGradient></defs><defs><linearGradient id="grad2_1" x1="0%" y1="0%" x2="66.7%" y2="100%"><stop offset="20%" stop-color="#ffecd1" stop-opacity="1"></stop><stop offset="80%" stop-color="#ffe3ba" stop-opacity="1"></stop></linearGradient></defs><defs><linearGradient id="grad2_2" x1="0%" y1="0%" x2="66.7%" y2="100%"><stop offset="20%" stop-color="#ffecd1" stop-opacity="1"></stop><stop offset="80%" stop-color="#fff6e8" stop-opacity="1"></stop></linearGradient></defs><defs><linearGradient id="grad2_3" x1="0%" y1="0%" x2="66.7%" y2="100%"><stop offset="20%" stop-color="#ffffff" stop-opacity="1"></stop><stop offset="80%" stop-color="#fff6e8" stop-opacity="1"></stop></linearGradient></defs>
<g transform="translate(0, 600)"><path d="M0 -378.6C55.9 -379 111.8 -379.5 143.5 -346.5C175.2 -313.5 182.6 -247 207.2 -207.2C231.8 -167.3 273.5 -154.1 299.3 -124C325.2 -93.9 335.1 -46.9 345 0L0 0Z" fill="#fffaf3"></path><path d="M0 -283.9C41.9 -284.3 83.9 -284.6 107.6 -259.8C131.4 -235.1 136.9 -185.3 155.4 -155.4C173.8 -125.5 205.1 -115.6 224.5 -93C243.9 -70.4 251.3 -35.2 258.8 0L0 0Z" fill="#fff1dc"></path><path d="M0 -189.3C28 -189.5 55.9 -189.7 71.8 -173.2C87.6 -156.7 91.3 -123.5 103.6 -103.6C115.9 -83.7 136.8 -77 149.7 -62C162.6 -46.9 167.5 -23.5 172.5 0L0 0Z" fill="#ffe8c5"></path><path d="M0 -94.6C14 -94.8 28 -94.9 35.9 -86.6C43.8 -78.4 45.6 -61.8 51.8 -51.8C57.9 -41.8 68.4 -38.5 74.8 -31C81.3 -23.5 83.8 -11.7 86.3 0L0 0Z" fill="#ffe3ba"></path></g></svg>