<svg id="visual" viewBox="0 0 900 600" width="900" height="600" xmlns="http://www.w3.org/2000/svg" xmlns:xlink="http://www.w3.org/1999/xlink" version="1.1"><rect x="0" y="0" width="900" height="600" fill="#fff"></rect><path d="M488 600L486.2 585.7C484.3 571.3 480.7 542.7 502.5 514.2C524.3 485.7 571.7 457.3 574.5 428.8C577.3 400.3 535.7 371.7 516 343C496.3 314.3 498.7 285.7 471.5 257C444.3 228.3 387.7 199.7 359.7 171.2C331.7 142.7 332.3 114.3 359.5 85.8C386.7 57.3 440.3 28.7 467.2 14.3L494 0L900 0L900 14.3C900 28.7 900 57.3 900 85.8C900 114.3 900 142.7 900 171.2C900 199.7 900 228.3 900 257C900 285.7 900 314.3 900 343C900 371.7 900 400.3 900 428.8C900 457.3 900 485.7 900 514.2C900 542.7 900 571.3 900 585.7L900 600Z" fill="#ffffff"></path><path d="M407 600L440.2 585.7C473.3 571.3 539.7 542.7 532.2 514.2C524.7 485.7 443.3 457.3 448.8 428.8C454.3 400.3 546.7 371.7 561.7 343C576.7 314.3 514.3 285.7 496 257C477.7 228.3 503.3 199.7 500.8 171.2C498.3 142.7 467.7 114.3 465.3 85.8C463 57.3 489 28.7 502 14.3L515 0L900 0L900 14.3C900 28.7 900 57.3 900 85.8C900 114.3 900 142.7 900 171.2C900 199.7 900 228.3 900 257C900 285.7 900 314.3 900 343C900 371.7 900 400.3 900 428.8C900 457.3 900 485.7 900 514.2C900 542.7 900 571.3 900 585.7L900 600Z" fill="#fffbf6"></path><path d="M426 600L440.2 585.7C454.3 571.3 482.7 542.7 489 514.2C495.3 485.7 479.7 457.3 505.3 428.8C531 400.3 598 371.7 634 343C670 314.3 675 285.7 634.8 257C594.7 228.3 509.3 199.7 480.8 171.2C452.3 142.7 480.7 114.3 514.2 85.8C547.7 57.3 586.3 28.7 605.7 14.3L625 0L900 0L900 14.3C900 28.7 900 57.3 900 85.8C900 114.3 900 142.7 900 171.2C900 199.7 900 228.3 900 257C900 285.7 900 314.3 900 343C900 371.7 900 400.3 900 428.8C900 457.3 900 485.7 900 514.2C900 542.7 900 571.3 900 585.7L900 600Z" fill="#fff8ed"></path><path d="M475 600L498.5 585.7C522 571.3 569 542.7 593.7 514.2C618.3 485.7 620.7 457.3 601.7 428.8C582.7 400.3 542.3 371.7 558.5 343C574.7 314.3 647.3 285.7 670.3 257C693.3 228.3 666.7 199.7 634 171.2C601.3 142.7 562.7 114.3 566.7 85.8C570.7 57.3 617.3 28.7 640.7 14.3L664 0L900 0L900 14.3C900 28.7 900 57.3 900 85.8C900 114.3 900 142.7 900 171.2C900 199.7 900 228.3 900 257C900 285.7 900 314.3 900 343C900 371.7 900 400.3 900 428.8C900 457.3 900 485.7 900 514.2C900 542.7 900 571.3 900 585.7L900 600Z" fill="#fff4e5"></path><path d="M692 600L693.8 585.7C695.7 571.3 699.3 542.7 682.8 514.2C666.3 485.7 629.7 457.3 630.7 428.8C631.7 400.3 670.3 371.7 697.7 343C725 314.3 741 285.7 716 257C691 228.3 625 199.7 624 171.2C623 142.7 687 114.3 698.3 85.8C709.7 57.3 668.3 28.7 647.7 14.3L627 0L900 0L900 14.3C900 28.7 900 57.3 900 85.8C900 114.3 900 142.7 900 171.2C900 199.7 900 228.3 900 257C900 285.7 900 314.3 900 343C900 371.7 900 400.3 900 428.8C900 457.3 900 485.7 900 514.2C900 542.7 900 571.3 900 585.7L900 600Z" fill="#fff1dc"></path><path d="M770 600L744.7 585.7C719.3 571.3 668.7 542.7 647.3 514.2C626 485.7 634 457.3 636.7 428.8C639.3 400.3 636.7 371.7 654 343C671.3 314.3 708.7 285.7 735 257C761.3 228.3 776.7 199.7 778.8 171.2C781 142.7 770 114.3 746.2 85.8C722.3 57.3 685.7 28.7 667.3 14.3L649 0L900 0L900 14.3C900 28.7 900 57.3 900 85.8C900 114.3 900 142.7 900 171.2C900 199.7 900 228.3 900 257C900 285.7 900 314.3 900 343C900 371.7 900 400.3 900 428.8C900 457.3 900 485.7 900 514.2C900 542.7 900 571.3 900 585.7L900 600Z" fill="#ffeed3"></path><path d="M723 600L730.5 585.7C738 571.3 753 542.7 770.5 514.2C788 485.7 808 457.3 799 428.8C790 400.3 752 371.7 733.5 343C715 314.3 716 285.7 725.5 257C735 228.3 753 199.7 759.7 171.2C766.3 142.7 761.7 114.3 760.8 85.8C760 57.3 763 28.7 764.5 14.3L766 0L900 0L900 14.3C900 28.7 900 57.3 900 85.8C900 114.3 900 142.7 900 171.2C900 199.7 900 228.3 900 257C900 285.7 900 314.3 900 343C900 371.7 900 400.3 900 428.8C900 457.3 900 485.7 900 514.2C900 542.7 900 571.3 900 585.7L900 600Z" fill="#ffeacb"></path><path d="M814 600L810 585.7C806 571.3 798 542.7 785.8 514.2C773.7 485.7 757.3 457.3 756.3 428.8C755.3 400.3 769.7 371.7 780.3 343C791 314.3 798 285.7 804.7 257C811.3 228.3 817.7 199.7 819.8 171.2C822 142.7 820 114.3 806 85.8C792 57.3 766 28.7 753 14.3L740 0L900 0L900 14.3C900 28.7 900 57.3 900 85.8C900 114.3 900 142.7 900 171.2C900 199.7 900 228.3 900 257C900 285.7 900 314.3 900 343C900 371.7 900 400.3 900 428.8C900 457.3 900 485.7 900 514.2C900 542.7 900 571.3 900 585.7L900 600Z" fill="#ffe7c2"></path><path d="M840 600L832 585.7C824 571.3 808 542.7 816 514.2C824 485.7 856 457.3 872.8 428.8C889.7 400.3 891.3 371.7 889.3 343C887.3 314.3 881.7 285.7 880.2 257C878.7 228.3 881.3 199.7 868.7 171.2C856 142.7 828 114.3 815.3 85.8C802.7 57.3 805.3 28.7 806.7 14.3L808 0L900 0L900 14.3C900 28.7 900 57.3 900 85.8C900 114.3 900 142.7 900 171.2C900 199.7 900 228.3 900 257C900 285.7 900 314.3 900 343C900 371.7 900 400.3 900 428.8C900 457.3 900 485.7 900 514.2C900 542.7 900 571.3 900 585.7L900 600Z" fill="#ffe3ba"></path></svg>