<svg id="visual" viewBox="0 0 900 600" width="900" height="600" xmlns="http://www.w3.org/2000/svg" xmlns:xlink="http://www.w3.org/1999/xlink" version="1.1"><rect x="0" y="0" width="900" height="600" fill="#fafafa"></rect><path d="M0 490L21.5 488.3C43 486.7 86 483.3 128.8 490.3C171.7 497.3 214.3 514.7 257.2 512.7C300 510.7 343 489.3 385.8 471.7C428.7 454 471.3 440 514.2 451.3C557 462.7 600 499.3 642.8 506C685.7 512.7 728.3 489.3 771.2 479C814 468.7 857 471.3 878.5 472.7L900 474L900 601L878.5 601C857 601 814 601 771.2 601C728.3 601 685.7 601 642.8 601C600 601 557 601 514.2 601C471.3 601 428.7 601 385.8 601C343 601 300 601 257.2 601C214.3 601 171.7 601 128.8 601C86 601 43 601 21.5 601L0 601Z" fill="#FFA07A" stroke-linecap="round" stroke-linejoin="miter"></path></svg>