<svg id="visual" viewBox="0 0 900 600" width="900" height="600" xmlns="http://www.w3.org/2000/svg" xmlns:xlink="http://www.w3.org/1999/xlink" version="1.1"><rect x="0" y="0" width="900" height="600" fill="#fff"></rect><path d="M0 506L16.7 487.2C33.3 468.3 66.7 430.7 100 415.7C133.3 400.7 166.7 408.3 200 421.3C233.3 434.3 266.7 452.7 300 470C333.3 487.3 366.7 503.7 400 488.5C433.3 473.3 466.7 426.7 500 416.8C533.3 407 566.7 434 600 445.3C633.3 456.7 666.7 452.3 700 450.7C733.3 449 766.7 450 800 438.5C833.3 427 866.7 403 883.3 391L900 379L900 601L883.3 601C866.7 601 833.3 601 800 601C766.7 601 733.3 601 700 601C666.7 601 633.3 601 600 601C566.7 601 533.3 601 500 601C466.7 601 433.3 601 400 601C366.7 601 333.3 601 300 601C266.7 601 233.3 601 200 601C166.7 601 133.3 601 100 601C66.7 601 33.3 601 16.7 601L0 601Z" fill="#fef3e9"></path><path d="M0 506L16.7 510.8C33.3 515.7 66.7 525.3 100 524.8C133.3 524.3 166.7 513.7 200 509.5C233.3 505.3 266.7 507.7 300 501.2C333.3 494.7 366.7 479.3 400 476.3C433.3 473.3 466.7 482.7 500 497.2C533.3 511.7 566.7 531.3 600 530.2C633.3 529 666.7 507 700 497.3C733.3 487.7 766.7 490.3 800 490.5C833.3 490.7 866.7 488.3 883.3 487.2L900 486L900 601L883.3 601C866.7 601 833.3 601 800 601C766.7 601 733.3 601 700 601C666.7 601 633.3 601 600 601C566.7 601 533.3 601 500 601C466.7 601 433.3 601 400 601C366.7 601 333.3 601 300 601C266.7 601 233.3 601 200 601C166.7 601 133.3 601 100 601C66.7 601 33.3 601 16.7 601L0 601Z" fill="#ffe9d1"></path><path d="M0 526L16.7 527C33.3 528 66.7 530 100 522C133.3 514 166.7 496 200 492.8C233.3 489.7 266.7 501.3 300 511.3C333.3 521.3 366.7 529.7 400 525.3C433.3 521 466.7 504 500 502.3C533.3 500.7 566.7 514.3 600 523.8C633.3 533.3 666.7 538.7 700 545.5C733.3 552.3 766.7 560.7 800 551.5C833.3 542.3 866.7 515.7 883.3 502.3L900 489L900 601L883.3 601C866.7 601 833.3 601 800 601C766.7 601 733.3 601 700 601C666.7 601 633.3 601 600 601C566.7 601 533.3 601 500 601C466.7 601 433.3 601 400 601C366.7 601 333.3 601 300 601C266.7 601 233.3 601 200 601C166.7 601 133.3 601 100 601C66.7 601 33.3 601 16.7 601L0 601Z" fill="#ffe1b9"></path><path d="M0 533L16.7 540.5C33.3 548 66.7 563 100 570.2C133.3 577.3 166.7 576.7 200 578.2C233.3 579.7 266.7 583.3 300 585C333.3 586.7 366.7 586.3 400 581.8C433.3 577.3 466.7 568.7 500 566C533.3 563.3 566.7 566.7 600 568C633.3 569.3 666.7 568.7 700 567.5C733.3 566.3 766.7 564.7 800 559.8C833.3 555 866.7 547 883.3 543L900 539L900 601L883.3 601C866.7 601 833.3 601 800 601C766.7 601 733.3 601 700 601C666.7 601 633.3 601 600 601C566.7 601 533.3 601 500 601C466.7 601 433.3 601 400 601C366.7 601 333.3 601 300 601C266.7 601 233.3 601 200 601C166.7 601 133.3 601 100 601C66.7 601 33.3 601 16.7 601L0 601Z" fill="#ffd9a1"></path></svg>