<svg id="visual" viewBox="0 0 900 600" width="900" height="600" xmlns="http://www.w3.org/2000/svg" xmlns:xlink="http://www.w3.org/1999/xlink" version="1.1"><rect x="0" y="0" width="900" height="600" fill="#fff"></rect><path d="M0 527L16.7 521.3C33.3 515.7 66.7 504.3 100 484.2C133.3 464 166.7 435 200 421.3C233.3 407.7 266.7 409.3 300 424.5C333.3 439.7 366.7 468.3 400 471.8C433.3 475.3 466.7 453.7 500 455.5C533.3 457.3 566.7 482.7 600 498.8C633.3 515 666.7 522 700 516C733.3 510 766.7 491 800 477.8C833.3 464.7 866.7 457.3 883.3 453.7L900 450L900 601L883.3 601C866.7 601 833.3 601 800 601C766.7 601 733.3 601 700 601C666.7 601 633.3 601 600 601C566.7 601 533.3 601 500 601C466.7 601 433.3 601 400 601C366.7 601 333.3 601 300 601C266.7 601 233.3 601 200 601C166.7 601 133.3 601 100 601C66.7 601 33.3 601 16.7 601L0 601Z" fill="#fef3e9"></path><path d="M0 456L16.7 460.3C33.3 464.7 66.7 473.3 100 484.2C133.3 495 166.7 508 200 519C233.3 530 266.7 539 300 523.2C333.3 507.3 366.7 466.7 400 463.3C433.3 460 466.7 494 500 503.3C533.3 512.7 566.7 497.3 600 499C633.3 500.7 666.7 519.3 700 521.5C733.3 523.7 766.7 509.3 800 501C833.3 492.7 866.7 490.3 883.3 489.2L900 488L900 601L883.3 601C866.7 601 833.3 601 800 601C766.7 601 733.3 601 700 601C666.7 601 633.3 601 600 601C566.7 601 533.3 601 500 601C466.7 601 433.3 601 400 601C366.7 601 333.3 601 300 601C266.7 601 233.3 601 200 601C166.7 601 133.3 601 100 601C66.7 601 33.3 601 16.7 601L0 601Z" fill="#ffe9d1"></path><path d="M0 514L16.7 513.5C33.3 513 66.7 512 100 504.8C133.3 497.7 166.7 484.3 200 480.7C233.3 477 266.7 483 300 488.8C333.3 494.7 366.7 500.3 400 511.8C433.3 523.3 466.7 540.7 500 536C533.3 531.3 566.7 504.7 600 490.8C633.3 477 666.7 476 700 483.5C733.3 491 766.7 507 800 506.7C833.3 506.3 866.7 489.7 883.3 481.3L900 473L900 601L883.3 601C866.7 601 833.3 601 800 601C766.7 601 733.3 601 700 601C666.7 601 633.3 601 600 601C566.7 601 533.3 601 500 601C466.7 601 433.3 601 400 601C366.7 601 333.3 601 300 601C266.7 601 233.3 601 200 601C166.7 601 133.3 601 100 601C66.7 601 33.3 601 16.7 601L0 601Z" fill="#ffe1b9"></path><path d="M0 580L16.7 580.3C33.3 580.7 66.7 581.3 100 573.5C133.3 565.7 166.7 549.3 200 545.7C233.3 542 266.7 551 300 550.2C333.3 549.3 366.7 538.7 400 541.2C433.3 543.7 466.7 559.3 500 568.5C533.3 577.7 566.7 580.3 600 579.7C633.3 579 666.7 575 700 570.2C733.3 565.3 766.7 559.7 800 560.8C833.3 562 866.7 570 883.3 574L900 578L900 601L883.3 601C866.7 601 833.3 601 800 601C766.7 601 733.3 601 700 601C666.7 601 633.3 601 600 601C566.7 601 533.3 601 500 601C466.7 601 433.3 601 400 601C366.7 601 333.3 601 300 601C266.7 601 233.3 601 200 601C166.7 601 133.3 601 100 601C66.7 601 33.3 601 16.7 601L0 601Z" fill="#ffd9a1"></path></svg>