<svg id="visual" viewBox="0 0 900 600" width="900" height="600" xmlns="http://www.w3.org/2000/svg" xmlns:xlink="http://www.w3.org/1999/xlink" version="1.1"><rect x="0" y="0" width="900" height="600" fill="#f4f3f2"></rect><path d="M0 453L21.5 455.8C43 458.7 86 464.3 128.8 457.5C171.7 450.7 214.3 431.3 257.2 424.7C300 418 343 424 385.8 440.8C428.7 457.7 471.3 485.3 514.2 493.2C557 501 600 489 642.8 474.8C685.7 460.7 728.3 444.3 771.2 441C814 437.7 857 447.3 878.5 452.2L900 457L900 601L878.5 601C857 601 814 601 771.2 601C728.3 601 685.7 601 642.8 601C600 601 557 601 514.2 601C471.3 601 428.7 601 385.8 601C343 601 300 601 257.2 601C214.3 601 171.7 601 128.8 601C86 601 43 601 21.5 601L0 601Z" fill="#ffbea3"></path><path d="M0 476L21.5 483C43 490 86 504 128.8 514.3C171.7 524.7 214.3 531.3 257.2 536.8C300 542.3 343 546.7 385.8 542.8C428.7 539 471.3 527 514.2 523.2C557 519.3 600 523.7 642.8 526.2C685.7 528.7 728.3 529.3 771.2 522C814 514.7 857 499.3 878.5 491.7L900 484L900 601L878.5 601C857 601 814 601 771.2 601C728.3 601 685.7 601 642.8 601C600 601 557 601 514.2 601C471.3 601 428.7 601 385.8 601C343 601 300 601 257.2 601C214.3 601 171.7 601 128.8 601C86 601 43 601 21.5 601L0 601Z" fill="#eb7e53"></path></svg>