<svg id="visual" viewBox="0 0 900 600" width="900" height="600" xmlns="http://www.w3.org/2000/svg" xmlns:xlink="http://www.w3.org/1999/xlink" version="1.1"><path d="M0 133L15 135C30 137 60 141 90 142C120 143 150 141 180 140C210 139 240 139 270 129C300 119 330 99 360 88C390 77 420 75 450 79C480 83 510 93 540 90C570 87 600 71 630 72C660 73 690 91 720 103C750 115 780 121 810 117C840 113 870 99 885 92L900 85L900 0L885 0C870 0 840 0 810 0C780 0 750 0 720 0C690 0 660 0 630 0C600 0 570 0 540 0C510 0 480 0 450 0C420 0 390 0 360 0C330 0 300 0 270 0C240 0 210 0 180 0C150 0 120 0 90 0C60 0 30 0 15 0L0 0Z" fill="#ffffff"></path><path d="M0 187L15 190C30 193 60 199 90 205C120 211 150 217 180 217C210 217 240 211 270 197C300 183 330 161 360 154C390 147 420 155 450 160C480 165 510 167 540 164C570 161 600 153 630 157C660 161 690 177 720 184C750 191 780 189 810 178C840 167 870 147 885 137L900 127L900 83L885 90C870 97 840 111 810 115C780 119 750 113 720 101C690 89 660 71 630 70C600 69 570 85 540 88C510 91 480 81 450 77C420 73 390 75 360 86C330 97 300 117 270 127C240 137 210 137 180 138C150 139 120 141 90 140C60 139 30 135 15 133L0 131Z" fill="#fff9f1"></path><path d="M0 343L15 349C30 355 60 367 90 378C120 389 150 399 180 398C210 397 240 385 270 365C300 345 330 317 360 298C390 279 420 269 450 266C480 263 510 267 540 264C570 261 600 251 630 264C660 277 690 313 720 329C750 345 780 341 810 334C840 327 870 317 885 312L900 307L900 125L885 135C870 145 840 165 810 176C780 187 750 189 720 182C690 175 660 159 630 155C600 151 570 159 540 162C510 165 480 163 450 158C420 153 390 145 360 152C330 159 300 181 270 195C240 209 210 215 180 215C150 215 120 209 90 203C60 197 30 191 15 188L0 185Z" fill="#fff4e3"></path><path d="M0 415L15 415C30 415 60 415 90 420C120 425 150 435 180 438C210 441 240 437 270 420C300 403 330 373 360 356C390 339 420 335 450 336C480 337 510 343 540 334C570 325 600 301 630 308C660 315 690 353 720 374C750 395 780 399 810 396C840 393 870 383 885 378L900 373L900 305L885 310C870 315 840 325 810 332C780 339 750 343 720 327C690 311 660 275 630 262C600 249 570 259 540 262C510 265 480 261 450 264C420 267 390 277 360 296C330 315 300 343 270 363C240 383 210 395 180 396C150 397 120 387 90 376C60 365 30 353 15 347L0 341Z" fill="#ffeed5"></path><path d="M0 565L15 560C30 555 60 545 90 543C120 541 150 547 180 548C210 549 240 545 270 543C300 541 330 541 360 545C390 549 420 557 450 556C480 555 510 545 540 537C570 529 600 523 630 526C660 529 690 541 720 546C750 551 780 549 810 545C840 541 870 535 885 532L900 529L900 371L885 376C870 381 840 391 810 394C780 397 750 393 720 372C690 351 660 313 630 306C600 299 570 323 540 332C510 341 480 335 450 334C420 333 390 337 360 354C330 371 300 401 270 418C240 435 210 439 180 436C150 433 120 423 90 418C60 413 30 413 15 413L0 413Z" fill="#ffe9c8"></path><path d="M0 601L15 601C30 601 60 601 90 601C120 601 150 601 180 601C210 601 240 601 270 601C300 601 330 601 360 601C390 601 420 601 450 601C480 601 510 601 540 601C570 601 600 601 630 601C660 601 690 601 720 601C750 601 780 601 810 601C840 601 870 601 885 601L900 601L900 527L885 530C870 533 840 539 810 543C780 547 750 549 720 544C690 539 660 527 630 524C600 521 570 527 540 535C510 543 480 553 450 554C420 555 390 547 360 543C330 539 300 539 270 541C240 543 210 547 180 546C150 545 120 539 90 541C60 543 30 553 15 558L0 563Z" fill="#ffe3ba"></path></svg>