<svg id="visual" viewBox="0 0 900 600" width="900" height="600" xmlns="http://www.w3.org/2000/svg" xmlns:xlink="http://www.w3.org/1999/xlink" version="1.1"><path d="M755 600L749 590C743 580 731 560 728 540C725 520 731 500 744.5 480C758 460 779 440 783.5 420C788 400 776 380 773 360C770 340 776 320 776 300C776 280 770 260 764 240C758 220 752 200 753.5 180C755 160 764 140 765.5 120C767 100 761 80 755 60C749 40 743 20 740 10L737 0L900 0L900 10C900 20 900 40 900 60C900 80 900 100 900 120C900 140 900 160 900 180C900 200 900 220 900 240C900 260 900 280 900 300C900 320 900 340 900 360C900 380 900 400 900 420C900 440 900 460 900 480C900 500 900 520 900 540C900 560 900 580 900 590L900 600Z" fill="#ffe3ba"></path><path d="M710 600L702.5 590C695 580 680 560 675.5 540C671 520 677 500 686 480C695 460 707 440 710 420C713 400 707 380 708.5 360C710 340 719 320 716 300C713 280 698 260 689 240C680 220 677 200 675.5 180C674 160 674 140 671 120C668 100 662 80 663.5 60C665 40 674 20 678.5 10L683 0L738 0L741 10C744 20 750 40 756 60C762 80 768 100 766.5 120C765 140 756 160 754.5 180C753 200 759 220 765 240C771 260 777 280 777 300C777 320 771 340 774 360C777 380 789 400 784.5 420C780 440 759 460 745.5 480C732 500 726 520 729 540C732 560 744 580 750 590L756 600Z" fill="#ffe8c9"></path><path d="M656 600L648.5 590C641 580 626 560 621.5 540C617 520 623 500 635 480C647 460 665 440 669.5 420C674 400 665 380 660.5 360C656 340 656 320 648.5 300C641 280 626 260 620 240C614 220 617 200 618.5 180C620 160 620 140 615.5 120C611 100 602 80 605 60C608 40 623 20 630.5 10L638 0L684 0L679.5 10C675 20 666 40 664.5 60C663 80 669 100 672 120C675 140 675 160 676.5 180C678 200 681 220 690 240C699 260 714 280 717 300C720 320 711 340 709.5 360C708 380 714 400 711 420C708 440 696 460 687 480C678 500 672 520 676.5 540C681 560 696 580 703.5 590L711 600Z" fill="#ffedd8"></path><path d="M449 600L443 590C437 580 425 560 425 540C425 520 437 500 429.5 480C422 460 395 440 390.5 420C386 400 404 380 399.5 360C395 340 368 320 374 300C380 280 419 260 425 240C431 220 404 200 389 180C374 160 371 140 375.5 120C380 100 392 80 401 60C410 40 416 20 419 10L422 0L639 0L631.5 10C624 20 609 40 606 60C603 80 612 100 616.5 120C621 140 621 160 619.5 180C618 200 615 220 621 240C627 260 642 280 649.5 300C657 320 657 340 661.5 360C666 380 675 400 670.5 420C666 440 648 460 636 480C624 500 618 520 622.5 540C627 560 642 580 649.5 590L657 600Z" fill="#fef2e6"></path><path d="M422 600L416 590C410 580 398 560 398 540C398 520 410 500 402.5 480C395 460 368 440 360.5 420C353 400 365 380 360.5 360C356 340 335 320 342.5 300C350 280 386 260 392 240C398 220 374 200 359 180C344 160 338 140 341 120C344 100 356 80 366.5 60C377 40 386 20 390.5 10L395 0L423 0L420 10C417 20 411 40 402 60C393 80 381 100 376.5 120C372 140 375 160 390 180C405 200 432 220 426 240C420 260 381 280 375 300C369 320 396 340 400.5 360C405 380 387 400 391.5 420C396 440 423 460 430.5 480C438 500 426 520 426 540C426 560 438 580 444 590L450 600Z" fill="#fef3e9"></path><path d="M206 600L203 590C200 580 194 560 201.5 540C209 520 230 500 231.5 480C233 460 215 440 207.5 420C200 400 203 380 197 360C191 340 176 320 174.5 300C173 280 185 260 198.5 240C212 220 227 200 231.5 180C236 160 230 140 222.5 120C215 100 206 80 212 60C218 40 239 20 249.5 10L260 0L396 0L391.5 10C387 20 378 40 367.5 60C357 80 345 100 342 120C339 140 345 160 360 180C375 200 399 220 393 240C387 260 351 280 343.5 300C336 320 357 340 361.5 360C366 380 354 400 361.5 420C369 440 396 460 403.5 480C411 500 399 520 399 540C399 560 411 580 417 590L423 600Z" fill="#fef2e6"></path><path d="M143 600L134 590C125 580 107 560 101 540C95 520 101 500 108.5 480C116 460 125 440 131 420C137 400 140 380 132.5 360C125 340 107 320 99.5 300C92 280 95 260 99.5 240C104 220 110 200 116 180C122 160 128 140 128 120C128 100 122 80 120.5 60C119 40 122 20 123.5 10L125 0L261 0L250.5 10C240 20 219 40 213 60C207 80 216 100 223.5 120C231 140 237 160 232.5 180C228 200 213 220 199.5 240C186 260 174 280 175.5 300C177 320 192 340 198 360C204 380 201 400 208.5 420C216 440 234 460 232.5 480C231 500 210 520 202.5 540C195 560 201 580 204 590L207 600Z" fill="#ffedd8"></path><path d="M98 600L89 590C80 580 62 560 57.5 540C53 520 62 500 68 480C74 460 77 440 78.5 420C80 400 80 380 74 360C68 340 56 320 53 300C50 280 56 260 59 240C62 220 62 200 68 180C74 160 86 140 83 120C80 100 62 80 56 60C50 40 56 20 59 10L62 0L126 0L124.5 10C123 20 120 40 121.5 60C123 80 129 100 129 120C129 140 123 160 117 180C111 200 105 220 100.5 240C96 260 93 280 100.5 300C108 320 126 340 133.5 360C141 380 138 400 132 420C126 440 117 460 109.5 480C102 500 96 520 102 540C108 560 126 580 135 590L144 600Z" fill="#ffe8c9"></path><path d="M0 600L0 590C0 580 0 560 0 540C0 520 0 500 0 480C0 460 0 440 0 420C0 400 0 380 0 360C0 340 0 320 0 300C0 280 0 260 0 240C0 220 0 200 0 180C0 160 0 140 0 120C0 100 0 80 0 60C0 40 0 20 0 10L0 0L63 0L60 10C57 20 51 40 57 60C63 80 81 100 84 120C87 140 75 160 69 180C63 200 63 220 60 240C57 260 51 280 54 300C57 320 69 340 75 360C81 380 81 400 79.5 420C78 440 75 460 69 480C63 500 54 520 58.5 540C63 560 81 580 90 590L99 600Z" fill="#ffe3ba"></path></svg>