<svg id="visual" viewBox="0 0 900 600" width="900" height="600" xmlns="http://www.w3.org/2000/svg" xmlns:xlink="http://www.w3.org/1999/xlink" version="1.1"><path d="M0 61L15 59C30 57 60 53 90 51C120 49 150 49 180 47C210 45 240 41 270 39C300 37 330 37 360 43C390 49 420 61 450 59C480 57 510 41 540 37C570 33 600 41 630 48C660 55 690 61 720 59C750 57 780 47 810 42C840 37 870 37 885 37L900 37L900 0L885 0C870 0 840 0 810 0C780 0 750 0 720 0C690 0 660 0 630 0C600 0 570 0 540 0C510 0 480 0 450 0C420 0 390 0 360 0C330 0 300 0 270 0C240 0 210 0 180 0C150 0 120 0 90 0C60 0 30 0 15 0L0 0Z" fill="#ffffff"></path><path d="M0 127L15 128C30 129 60 131 90 124C120 117 150 101 180 92C210 83 240 81 270 79C300 77 330 75 360 87C390 99 420 125 450 122C480 119 510 87 540 79C570 71 600 87 630 98C660 109 690 115 720 113C750 111 780 101 810 95C840 89 870 87 885 86L900 85L900 35L885 35C870 35 840 35 810 40C780 45 750 55 720 57C690 59 660 53 630 46C600 39 570 31 540 35C510 39 480 55 450 57C420 59 390 47 360 41C330 35 300 35 270 37C240 39 210 43 180 45C150 47 120 47 90 49C60 51 30 55 15 57L0 59Z" fill="#fffcf7"></path><path d="M0 223L15 219C30 215 60 207 90 193C120 179 150 159 180 159C210 159 240 179 270 178C300 177 330 155 360 158C390 161 420 189 450 185C480 181 510 145 540 132C570 119 600 129 630 137C660 145 690 151 720 162C750 173 780 189 810 197C840 205 870 205 885 205L900 205L900 83L885 84C870 85 840 87 810 93C780 99 750 109 720 111C690 113 660 107 630 96C600 85 570 69 540 77C510 85 480 117 450 120C420 123 390 97 360 85C330 73 300 75 270 77C240 79 210 81 180 90C150 99 120 115 90 122C60 129 30 127 15 126L0 125Z" fill="#fff9ef"></path><path d="M0 265L15 256C30 247 60 229 90 214C120 199 150 187 180 188C210 189 240 203 270 202C300 201 330 185 360 187C390 189 420 209 450 201C480 193 510 157 540 149C570 141 600 161 630 174C660 187 690 193 720 199C750 205 780 211 810 214C840 217 870 217 885 217L900 217L900 203L885 203C870 203 840 203 810 195C780 187 750 171 720 160C690 149 660 143 630 135C600 127 570 117 540 130C510 143 480 179 450 183C420 187 390 159 360 156C330 153 300 175 270 176C240 177 210 157 180 157C150 157 120 177 90 191C60 205 30 213 15 217L0 221Z" fill="#fff6e8"></path><path d="M0 277L15 273C30 269 60 261 90 248C120 235 150 217 180 218C210 219 240 239 270 241C300 243 330 227 360 227C390 227 420 243 450 236C480 229 510 199 540 191C570 183 600 197 630 208C660 219 690 227 720 235C750 243 780 251 810 251C840 251 870 243 885 239L900 235L900 215L885 215C870 215 840 215 810 212C780 209 750 203 720 197C690 191 660 185 630 172C600 159 570 139 540 147C510 155 480 191 450 199C420 207 390 187 360 185C330 183 300 199 270 200C240 201 210 187 180 186C150 185 120 197 90 212C60 227 30 245 15 254L0 263Z" fill="#fff3e0"></path><path d="M0 403L15 404C30 405 60 407 90 399C120 391 150 373 180 366C210 359 240 363 270 362C300 361 330 355 360 362C390 369 420 389 450 396C480 403 510 397 540 390C570 383 600 375 630 378C660 381 690 395 720 406C750 417 780 425 810 410C840 395 870 357 885 338L900 319L900 233L885 237C870 241 840 249 810 249C780 249 750 241 720 233C690 225 660 217 630 206C600 195 570 181 540 189C510 197 480 227 450 234C420 241 390 225 360 225C330 225 300 241 270 239C240 237 210 217 180 216C150 215 120 233 90 246C60 259 30 267 15 271L0 275Z" fill="#ffefd8"></path><path d="M0 451L15 450C30 449 60 447 90 438C120 429 150 413 180 408C210 403 240 409 270 408C300 407 330 399 360 401C390 403 420 415 450 423C480 431 510 435 540 433C570 431 600 423 630 421C660 419 690 423 720 429C750 435 780 443 810 433C840 423 870 395 885 381L900 367L900 317L885 336C870 355 840 393 810 408C780 423 750 415 720 404C690 393 660 379 630 376C600 373 570 381 540 388C510 395 480 401 450 394C420 387 390 367 360 360C330 353 300 359 270 360C240 361 210 357 180 364C150 371 120 389 90 397C60 405 30 403 15 402L0 401Z" fill="#ffecd1"></path><path d="M0 469L15 471C30 473 60 477 90 472C120 467 150 453 180 446C210 439 240 439 270 436C300 433 330 427 360 429C390 431 420 441 450 453C480 465 510 479 540 479C570 479 600 465 630 462C660 459 690 467 720 475C750 483 780 491 810 480C840 469 870 439 885 424L900 409L900 365L885 379C870 393 840 421 810 431C780 441 750 433 720 427C690 421 660 417 630 419C600 421 570 429 540 431C510 433 480 429 450 421C420 413 390 401 360 399C330 397 300 405 270 406C240 407 210 401 180 406C150 411 120 427 90 436C60 445 30 447 15 448L0 449Z" fill="#ffe9c9"></path><path d="M0 535L15 534C30 533 60 531 90 525C120 519 150 509 180 498C210 487 240 475 270 472C300 469 330 475 360 481C390 487 420 493 450 500C480 507 510 515 540 514C570 513 600 503 630 504C660 505 690 517 720 525C750 533 780 537 810 525C840 513 870 485 885 471L900 457L900 407L885 422C870 437 840 467 810 478C780 489 750 481 720 473C690 465 660 457 630 460C600 463 570 477 540 477C510 477 480 463 450 451C420 439 390 429 360 427C330 425 300 431 270 434C240 437 210 437 180 444C150 451 120 465 90 470C60 475 30 471 15 469L0 467Z" fill="#ffe6c1"></path><path d="M0 601L15 601C30 601 60 601 90 601C120 601 150 601 180 601C210 601 240 601 270 601C300 601 330 601 360 601C390 601 420 601 450 601C480 601 510 601 540 601C570 601 600 601 630 601C660 601 690 601 720 601C750 601 780 601 810 601C840 601 870 601 885 601L900 601L900 455L885 469C870 483 840 511 810 523C780 535 750 531 720 523C690 515 660 503 630 502C600 501 570 511 540 512C510 513 480 505 450 498C420 491 390 485 360 479C330 473 300 467 270 470C240 473 210 485 180 496C150 507 120 517 90 523C60 529 30 531 15 532L0 533Z" fill="#ffe3ba"></path></svg>